<?xml version="1.0" encoding="utf-8"?>
<!-- Generator: Adobe Illustrator 19.1.0, SVG Export Plug-In . SVG Version: 6.00 Build 0)  -->
<svg version="1.1" xmlns="http://www.w3.org/2000/svg" xmlns:xlink="http://www.w3.org/1999/xlink" x="0px" y="0px"
	 viewBox="0 0 800 800" style="enable-background:new 0 0 800 800;" xml:space="preserve">
<style type="text/css">
	.st0{display:none;}
	.st1{display:inline;}
	.st2{fill:#AF9099;}
	.st3{fill:#F8971D;}
	.st4{fill:#4250A2;}
	.st5{fill:url(#SVGID_1_);}
	.st6{fill:none;}
	.st7{fill:#576AB2;}
	.st8{fill:#600A2C;}
	.st9{fill:url(#SVGID_2_);}
	.st10{fill:url(#SVGID_3_);}
	.st11{fill:#586AB2;}
	.st12{fill:#4251A3;}
	.st13{fill:url(#SVGID_4_);}
	.st14{fill:#F15E22;}
	.st15{fill:#1C7AA3;}
	.st16{fill:#0A72A2;}
	.st17{fill:url(#SVGID_5_);}
	.st18{fill:#3699B2;}
	.st19{fill:#6C2D6A;}
</style>
<g id="Layer_1" class="st0">
	<g class="st1">
		<circle cx="282.3" cy="206.6" r="128.5"/>
		<circle class="st2" cx="282.3" cy="206.6" r="69.2"/>
		<rect x="308.3" y="178" class="st2" width="205" height="81"/>
		<circle cx="282.3" cy="404.3" r="128.5"/>
		<circle class="st2" cx="282.3" cy="404.3" r="69.2"/>
		<rect x="77.3" y="335.5" class="st2" width="205" height="32.8"/>
		<path class="st2" d="M194.8,300.6c0,0,32.9,34.5,87.6,34.5c55.3,0,66.4,49.6,66.4,49.6l-76.4-23l-137.8,3.8l30-50.5L194.8,300.6z"
			/>
		<path class="st2" d="M370.5,310.6c0,0-32.9-34.5-87.6-34.5c-55.3,0-66.4-49.6-66.4-49.6l214.2,19.2l-30,50.5L370.5,310.6z"/>
	</g>
</g>
<g id="Layer_2" class="st0">
</g>
<g id="Layer_4" class="st0">
	<g class="st1">
		<g>
			<path class="st3" d="M400,741L400,741c-129.7,0-234.9-105.2-234.9-234.9V271.3h469.7v234.9C634.9,635.8,529.7,741,400,741z"/>
		</g>
		<g>
			<path class="st4" d="M582.3,167h-90.1c-15.7-34.6-50.6-58.7-91.1-58.7c-50.4,0-92.1,37.3-99,85.8h0c-11.8,59.6,8.4,127,83.6,157
				c88.6,35.4,106.9,81.2,112.9,120.3c-0.4-2-1-3.9-1.5-5.8c-12.2-41.4-49.4-69.6-95.9-71.7c-46-2.3-75.8-14.4-96.6-27.1
				c-9.7-5.8-17.1-11.5-22.2-15.7c0,0,0.1-0.1,0.1-0.1c-41-34.1-67.1-85.4-67.1-142.9c0-102.6,83.2-185.7,185.7-185.7
				C489.6,22.6,563.6,84.3,582.3,167z"/>
			<linearGradient id="SVGID_1_" gradientUnits="userSpaceOnUse" x1="283.0274" y1="247.3404" x2="523.9157" y2="396.6911">
				<stop  offset="0" style="stop-color:#FFFFFF;stop-opacity:0"/>
				<stop  offset="1" style="stop-color:#000000"/>
			</linearGradient>
			<path class="st5" d="M301.7,196.9c0,0-9.8,55,40.5,90.6s133.2,56.8,133.2,56.8l54.9,149.8c0,0-33,39.8-29.8,11.5
				c3.3-28.3-4.8-105.6-109-112.2c-51.6-3.3-167-39-176-179.7c-9-140.7,8.8-112.3,8.8-112.3s127.7,54.9,126.7,56.4
				C350.2,159.2,301.7,196.9,301.7,196.9z"/>
			<path class="st4" d="M401.2,393.4c-2.2,0-4.4,0.1-6.6,0.2c2.2,0.2,4.3,0.3,6.6,0.4c46.5,2,83.7,30.3,95.9,71.7
				c0.6,1.9,1.1,3.8,1.5,5.8c-0.3-1.8-0.6-3.7-0.9-5.6C485.6,424,447,393.4,401.2,393.4z"/>
			<g>
				<path class="st6" d="M501.2,494c0-0.2,0-0.3,0-0.5c0,1,0,2.1-0.1,3.1C501.2,495.8,501.2,494.9,501.2,494z"/>
				<path class="st6" d="M476.8,414.7c-0.1-0.1-0.1-0.2-0.2-0.3c-0.5-0.6-0.9-1.3-1.4-1.9c0-0.1-0.1-0.1-0.1-0.2
					c-2.1-2.9-4.5-5.7-7-8.6c0,0,0,0-0.1-0.1c-0.6-0.7-1.2-1.3-1.8-2c-0.1-0.1-0.2-0.2-0.3-0.3c-0.5-0.6-1.1-1.2-1.7-1.7
					c-0.1-0.1-0.3-0.3-0.4-0.4c-0.5-0.5-1.1-1.1-1.6-1.6c-0.2-0.2-0.3-0.3-0.5-0.5c-0.5-0.5-1.1-1-1.6-1.6
					c6.5,7.1,12.3,13.6,17.3,19.8C477.1,415.1,477,414.9,476.8,414.7z"/>
				<path class="st6" d="M501.1,498.9c0,0.1,0,0.3,0,0.4C501.1,499.2,501.1,499,501.1,498.9z"/>
				<path class="st7" d="M519.9,351.1c0.1-0.1,0.2-0.1,0.2-0.2c-5.1-4.2-12.6-9.8-22.1-15.5c-28.2-17.3-49.2-21-96.8-27.2
					c-37.5-4.9-70.7-21-87.7-52c-7.8-14.3-12.3-30.6-12.3-48c0-4.8,0.3-9.5,1-14.2h0c-8.7,43.6-0.1,91.4,34.5,125.7c0,0,0,0,0,0
					c1.5,1.5,3.1,3,4.7,4.4c0.1,0.1,0.3,0.3,0.4,0.4c1.4,1.3,2.9,2.5,4.4,3.7c0.3,0.3,0.7,0.6,1,0.8c1.2,1,2.5,1.9,3.7,2.9
					c0.7,0.5,1.3,1,2,1.4c0.8,0.5,1.5,1.1,2.3,1.6c1.2,0.8,2.4,1.6,3.7,2.4c0.6,0.4,1.3,0.8,1.9,1.2c1.4,0.9,2.9,1.7,4.3,2.6
					c0.5,0.3,1,0.6,1.6,0.9c1.6,0.9,3.3,1.8,5,2.7c0.4,0.2,0.8,0.4,1.1,0.6c1.9,0.9,3.7,1.8,5.7,2.7c0.2,0.1,0.4,0.2,0.7,0.3
					c2.1,0.9,4.2,1.9,6.4,2.7c1.5,0.6,2.9,1.2,4.3,1.8c0.5,0.2,0.9,0.4,1.4,0.6c0.9,0.4,1.9,0.8,2.8,1.2c0.5,0.2,1.1,0.5,1.6,0.7
					c0.8,0.4,1.7,0.7,2.5,1.1c0.6,0.2,1.1,0.5,1.7,0.7c0.8,0.4,1.6,0.7,2.4,1.1c0.5,0.3,1.1,0.5,1.6,0.8c0.8,0.4,1.5,0.7,2.3,1.1
					c0.5,0.3,1.1,0.5,1.6,0.8c0.8,0.4,1.5,0.7,2.2,1.1c0.5,0.3,1,0.5,1.5,0.8c0.8,0.4,1.5,0.8,2.3,1.2c0.4,0.2,0.9,0.5,1.3,0.7
					c0.8,0.4,1.7,0.9,2.5,1.3c0.3,0.2,0.7,0.4,1,0.6c1.2,0.6,2.3,1.3,3.4,1.9c0,0,0,0,0,0c1.1,0.6,2.3,1.3,3.4,1.9
					c0.3,0.1,0.5,0.3,0.7,0.4c0.8,0.5,1.7,1,2.5,1.5c0.3,0.2,0.7,0.4,1,0.6c0.7,0.4,1.4,0.9,2.1,1.3c0.4,0.2,0.7,0.5,1.1,0.7
					c0.7,0.4,1.3,0.8,2,1.3c0.4,0.2,0.7,0.5,1.1,0.7c0.6,0.4,1.3,0.8,1.9,1.3c0.3,0.2,0.7,0.5,1,0.7c0.6,0.4,1.3,0.9,1.9,1.3
					c0.3,0.2,0.6,0.4,0.9,0.7c0.7,0.5,1.3,0.9,1.9,1.4c0.3,0.2,0.5,0.4,0.8,0.6c0.7,0.5,1.4,1.1,2.1,1.6c0.2,0.1,0.3,0.3,0.5,0.4
					c2.6,2,5.2,4.1,7.5,6.1c0.1,0.1,0.3,0.2,0.4,0.3c0.6,0.6,1.3,1.1,1.9,1.7c0.2,0.2,0.3,0.3,0.5,0.5c0.6,0.5,1.2,1.1,1.7,1.6
					c0.2,0.2,0.4,0.3,0.5,0.5c0.6,0.5,1.1,1,1.6,1.6c0.2,0.2,0.3,0.3,0.5,0.5c0.5,0.5,1.1,1.1,1.6,1.6c0.1,0.1,0.3,0.3,0.4,0.4
					c0.6,0.6,1.1,1.2,1.7,1.7c0.1,0.1,0.2,0.2,0.3,0.3c0.6,0.7,1.2,1.3,1.8,2c0,0,0,0,0.1,0.1c2.5,2.8,4.9,5.7,7,8.6
					c0,0.1,0.1,0.1,0.1,0.2c0.5,0.6,0.9,1.3,1.4,1.9c0.1,0.1,0.1,0.2,0.2,0.3c0.2,0.2,0.3,0.4,0.5,0.6c16.4,20.6,24.3,39.7,24,78.2
					c0,0.2,0,0.3,0,0.5c0,0.9,0,1.8-0.1,2.6c0,0.5,0,1.1,0,1.6c0,0.2,0,0.4,0,0.7c0,0.1,0,0.3,0,0.4c-0.1,1.5-0.2,2.9-0.3,4.2
					c-4.8,50.8-47.5,90.5-99.5,90.5c-55.2,0-100-44.8-100-100c0-11.6,1.6-22.5,4.9-32.6c6.6-19.3,18.9-36,34.9-48
					c-25.2-6.8-54.3-19.6-79.5-41.8c-17.6,20.1-30.9,44-38.6,70.3h0c0,0.1,0,0.1-0.1,0.2c-3,10.2-5.1,20.7-6.2,31.5
					c0,0.2,0,0.4-0.1,0.7c-0.2,2-0.4,4.1-0.6,6.1c0,0,0,0.1,0,0.1c-0.1,2-0.2,4-0.3,6c0,0.4,0,0.9,0,1.3c-0.1,2-0.1,4-0.1,6
					c0,2,0,4,0.1,6c0,0.6,0,1.1,0.1,1.7c0.1,1.6,0.2,3.3,0.3,4.9c0,0.4,0,0.8,0.1,1.2c0.1,2,0.3,4,0.5,5.9c0,0.4,0.1,0.8,0.1,1.3
					c0.2,1.6,0.4,3.2,0.6,4.9c0.1,0.5,0.1,0.9,0.2,1.4c0.3,2,0.6,4,1,5.9c0,0.1,0,0.1,0,0.2c0.3,1.9,0.7,3.8,1.1,5.7
					c0.1,0.4,0.2,0.8,0.3,1.2c0.4,1.9,0.8,3.7,1.3,5.5c0,0.1,0,0.1,0.1,0.2c0.5,2,1,4,1.6,5.9c0.1,0.3,0.2,0.5,0.2,0.8
					c0.5,1.8,1.1,3.5,1.6,5.3c0.1,0.2,0.1,0.4,0.2,0.6c1.3,3.9,2.7,7.7,4.3,11.5c0.1,0.2,0.2,0.4,0.2,0.6c1.6,3.8,3.3,7.6,5.1,11.2
					c0,0.1,0.1,0.2,0.1,0.3c2.8,5.6,5.8,11,9.1,16.3c0,0,0,0.1,0.1,0.1l0,0c32.9,52.3,91.1,87.1,157.4,87.1
					C503.8,679.7,587,596.6,587,494C587,436.6,560.9,385.2,519.9,351.1z"/>
				<path class="st8" d="M478.3,416.8c1.4,2,2.7,4,3.9,6.1C480.9,420.8,479.7,418.8,478.3,416.8z"/>
				<path class="st8" d="M501.1,498.3c0-0.6,0-1.1,0-1.6c0,0.8,0,1.5-0.1,2.3C501.1,498.7,501.1,498.5,501.1,498.3z"/>
				<path class="st8" d="M500.8,503.5c0.2-1.3,0.3-2.7,0.3-4.2C501,500.7,500.9,502.1,500.8,503.5z"/>
				<path class="st8" d="M484,426.1c1.1,2,2.2,4.1,3.1,6.1C486.2,430.1,485.1,428.1,484,426.1z"/>
			</g>
		</g>
	</g>
</g>
<g id="Layer_5" class="st0">
	<g class="st1">
		<g>
			<path class="st3" d="M634.7,271.1v234.7c0,129.6-105.1,234.7-234.7,234.7h0c-129.6,0-234.7-105.1-234.7-234.7V271.1H634.7
				 M655,250.7h-20.3H165.3H145v20.3v234.7c0,34.4,6.7,67.8,20,99.3c12.8,30.4,31.2,57.6,54.6,81.1c23.4,23.4,50.7,41.8,81.1,54.6
				c31.5,13.3,64.9,20,99.3,20c34.4,0,67.8-6.7,99.3-20c30.4-12.8,57.6-31.2,81.1-54.6c23.4-23.4,41.8-50.7,54.6-81.1
				c13.3-31.5,20-64.9,20-99.3V271.1V250.7L655,250.7z"/>
		</g>
		<g>
			<path class="st4" d="M582.2,166.8h-90c-15.7-34.6-50.5-58.6-91-58.6c-50.4,0-92,37.3-98.9,85.8h0
				c-11.8,59.5,8.4,126.9,83.5,156.9c88.5,35.3,106.8,81.1,112.8,120.2c-0.4-1.9-1-3.9-1.5-5.8c-12.2-41.4-49.4-69.6-95.8-71.6
				c-46-2.3-75.8-14.4-96.5-27.1c-9.7-5.8-17.1-11.5-22.2-15.7c0,0,0.1-0.1,0.1-0.1c-40.9-34-67-85.4-67-142.8
				c0-102.5,83.1-185.6,185.6-185.6C489.5,22.6,563.4,84.2,582.2,166.8z"/>
			<linearGradient id="SVGID_2_" gradientUnits="userSpaceOnUse" x1="283.1156" y1="247.171" x2="523.8223" y2="396.4091">
				<stop  offset="0" style="stop-color:#FFFFFF;stop-opacity:0"/>
				<stop  offset="1" style="stop-color:#000000"/>
			</linearGradient>
			<path class="st9" d="M301.8,196.8c0,0-9.8,55,40.5,90.5S475.4,344,475.4,344l54.9,149.7c0,0-33,39.8-29.7,11.5
				s-4.7-105.6-108.9-112.1c-51.5-3.3-166.9-39-175.9-179.5s8.8-112.2,8.8-112.2s127.6,54.9,126.6,56.3S301.8,196.8,301.8,196.8z"/>
			<path class="st4" d="M401.2,393.1c-2.2,0-4.4,0.1-6.6,0.2c2.2,0.2,4.3,0.3,6.6,0.4c46.4,2,83.6,30.2,95.8,71.6
				c0.6,1.9,1.1,3.8,1.5,5.8c-0.3-1.8-0.6-3.7-0.9-5.6C485.5,423.7,447,393.1,401.2,393.1z"/>
			<g>
				<path class="st6" d="M501.2,493.6c0-0.2,0-0.3,0-0.5c0,1,0,2.1-0.1,3.1C501.1,495.4,501.2,494.5,501.2,493.6z"/>
				<path class="st6" d="M476.7,414.4c-0.1-0.1-0.1-0.2-0.2-0.3c-0.5-0.6-0.9-1.3-1.4-1.9c0-0.1-0.1-0.1-0.1-0.2
					c-2.1-2.9-4.5-5.7-7-8.5c0,0,0,0-0.1-0.1c-0.6-0.7-1.2-1.3-1.8-2c-0.1-0.1-0.2-0.2-0.3-0.3c-0.5-0.6-1.1-1.2-1.7-1.7
					c-0.1-0.1-0.3-0.3-0.4-0.4c-0.5-0.5-1.1-1.1-1.6-1.6c-0.2-0.2-0.3-0.3-0.5-0.5c-0.5-0.5-1.1-1-1.6-1.6
					c6.5,7.1,12.3,13.6,17.3,19.8C477.1,414.8,476.9,414.6,476.7,414.4z"/>
				<path class="st6" d="M501,498.5c0,0.1,0,0.3,0,0.4C501,498.8,501,498.7,501,498.5z"/>
				<path class="st7" d="M519.8,350.9c0.1-0.1,0.2-0.1,0.2-0.2c-5.1-4.2-12.6-9.8-22.1-15.5c-28.2-17.2-49.1-21-96.7-27.2
					c-37.5-4.9-70.7-21-87.7-51.9c-7.8-14.2-12.2-30.6-12.2-48c0-4.8,0.3-9.5,1-14.2h0c-8.6,43.6-0.1,91.3,34.5,125.6c0,0,0,0,0,0
					c1.5,1.5,3.1,3,4.7,4.4c0.1,0.1,0.3,0.3,0.4,0.4c1.4,1.3,2.9,2.5,4.4,3.7c0.3,0.3,0.7,0.6,1,0.8c1.2,1,2.5,1.9,3.7,2.9
					c0.7,0.5,1.3,1,2,1.4c0.8,0.5,1.5,1.1,2.3,1.6c1.2,0.8,2.4,1.6,3.7,2.4c0.6,0.4,1.3,0.8,1.9,1.2c1.4,0.9,2.9,1.7,4.3,2.6
					c0.5,0.3,1,0.6,1.6,0.9c1.6,0.9,3.3,1.8,5,2.7c0.4,0.2,0.8,0.4,1.1,0.6c1.9,0.9,3.7,1.8,5.7,2.7c0.2,0.1,0.4,0.2,0.7,0.3
					c2.1,0.9,4.2,1.9,6.4,2.7c1.5,0.6,2.9,1.2,4.3,1.8c0.5,0.2,0.9,0.4,1.4,0.6c0.9,0.4,1.9,0.8,2.8,1.2c0.5,0.2,1.1,0.5,1.6,0.7
					c0.8,0.4,1.7,0.7,2.5,1.1c0.6,0.2,1.1,0.5,1.7,0.7c0.8,0.4,1.6,0.7,2.4,1.1c0.5,0.3,1.1,0.5,1.6,0.8c0.8,0.4,1.5,0.7,2.3,1.1
					c0.5,0.3,1.1,0.5,1.6,0.8c0.8,0.4,1.5,0.7,2.2,1.1c0.5,0.2,1,0.5,1.5,0.7c0.8,0.4,1.5,0.8,2.3,1.2c0.4,0.2,0.9,0.5,1.3,0.7
					c0.8,0.4,1.7,0.9,2.5,1.3c0.3,0.2,0.7,0.4,1,0.6c1.2,0.6,2.3,1.2,3.4,1.9c0,0,0,0,0,0c1.1,0.6,2.3,1.3,3.4,1.9
					c0.3,0.1,0.5,0.3,0.7,0.4c0.8,0.5,1.7,1,2.5,1.5c0.3,0.2,0.7,0.4,1,0.6c0.7,0.4,1.4,0.9,2.1,1.3c0.4,0.2,0.7,0.5,1.1,0.7
					c0.7,0.4,1.3,0.8,2,1.3c0.4,0.2,0.7,0.5,1.1,0.7c0.6,0.4,1.3,0.8,1.9,1.3c0.3,0.2,0.7,0.5,1,0.7c0.6,0.4,1.3,0.9,1.9,1.3
					c0.3,0.2,0.6,0.4,0.9,0.7c0.7,0.5,1.3,0.9,1.9,1.4c0.3,0.2,0.5,0.4,0.8,0.6c0.7,0.5,1.4,1.1,2.1,1.6c0.2,0.1,0.3,0.3,0.5,0.4
					c2.6,2,5.2,4.1,7.5,6.1c0.1,0.1,0.3,0.2,0.4,0.3c0.6,0.6,1.3,1.1,1.9,1.7c0.2,0.2,0.3,0.3,0.5,0.5c0.6,0.5,1.2,1.1,1.7,1.6
					c0.2,0.2,0.4,0.3,0.5,0.5c0.6,0.5,1.1,1,1.6,1.6c0.2,0.2,0.3,0.3,0.5,0.5c0.5,0.5,1.1,1.1,1.6,1.6c0.1,0.1,0.3,0.3,0.4,0.4
					c0.6,0.6,1.1,1.2,1.7,1.7c0.1,0.1,0.2,0.2,0.3,0.3c0.6,0.7,1.2,1.3,1.8,2c0,0,0,0,0.1,0.1c2.5,2.8,4.9,5.7,7,8.5
					c0,0.1,0.1,0.1,0.1,0.2c0.5,0.6,0.9,1.3,1.4,1.9c0.1,0.1,0.1,0.2,0.2,0.3c0.2,0.2,0.3,0.4,0.5,0.6
					c16.4,20.6,24.3,39.7,23.9,78.1c0,0.2,0,0.3,0,0.5c0,0.9,0,1.8-0.1,2.6c0,0.5,0,1.1,0,1.6c0,0.2,0,0.4,0,0.7c0,0.1,0,0.3,0,0.4
					c-0.1,1.5-0.2,2.9-0.3,4.2c-4.8,50.7-47.5,90.5-99.5,90.5c-55.2,0-99.9-44.7-99.9-99.9c0-11.6,1.6-22.4,4.9-32.6
					c6.6-19.3,18.9-35.9,34.9-47.9c-25.2-6.8-54.3-19.6-79.4-41.8c-17.6,20.1-30.9,43.9-38.6,70.2h0c0,0.1,0,0.1-0.1,0.2
					c-3,10.2-5.1,20.7-6.2,31.5c0,0.2,0,0.4-0.1,0.7c-0.2,2-0.4,4.1-0.6,6.1c0,0,0,0.1,0,0.1c-0.1,2-0.2,4-0.3,6c0,0.4,0,0.9,0,1.3
					c-0.1,2-0.1,4-0.1,6c0,2,0,4,0.1,6c0,0.6,0,1.1,0.1,1.6c0.1,1.6,0.2,3.3,0.3,4.9c0,0.4,0,0.8,0.1,1.2c0.1,2,0.3,4,0.5,5.9
					c0,0.4,0.1,0.8,0.1,1.3c0.2,1.6,0.4,3.2,0.6,4.9c0.1,0.5,0.1,0.9,0.2,1.4c0.3,2,0.6,4,1,5.9c0,0.1,0,0.1,0,0.2
					c0.3,1.9,0.7,3.8,1.1,5.7c0.1,0.4,0.2,0.8,0.3,1.2c0.4,1.9,0.8,3.7,1.3,5.5c0,0.1,0,0.1,0.1,0.2c0.5,2,1,4,1.6,5.9
					c0.1,0.3,0.2,0.5,0.2,0.8c0.5,1.8,1.1,3.5,1.6,5.3c0.1,0.2,0.1,0.4,0.2,0.6c1.3,3.9,2.7,7.7,4.3,11.5c0.1,0.2,0.2,0.4,0.2,0.6
					c1.6,3.8,3.3,7.6,5.1,11.2c0,0.1,0.1,0.2,0.1,0.3c2.8,5.6,5.8,11,9.1,16.3c0,0,0,0.1,0.1,0.1l0,0c32.8,52.3,91,87.1,157.3,87.1
					c102.5,0,185.6-83.1,185.6-185.6C586.8,436.3,560.8,384.9,519.8,350.9z"/>
				<path class="st8" d="M478.2,416.5c1.4,2,2.7,4,3.9,6.1C480.9,420.5,479.6,418.5,478.2,416.5z"/>
				<path class="st8" d="M501.1,497.9c0-0.6,0-1.1,0-1.6c0,0.8,0,1.5-0.1,2.3C501,498.3,501.1,498.1,501.1,497.9z"/>
				<path class="st8" d="M500.7,503.1c0.2-1.3,0.3-2.7,0.3-4.2C500.9,500.3,500.8,501.7,500.7,503.1z"/>
				<path class="st8" d="M483.9,425.8c1.1,2,2.2,4.1,3.1,6.1C486.1,429.8,485,427.8,483.9,425.8z"/>
			</g>
		</g>
	</g>
</g>
<g id="Layer_3" class="st0">
	<g class="st1">
		<g>
			<path class="st4" d="M577.2,163h-87.5c-15.3-33.6-49.1-57-88.5-57c-49,0-89.5,36.2-96.2,83.4h0c-11.5,57.9,8.2,123.4,81.2,152.6
				c86.1,34.4,103.8,78.8,109.6,116.9c-0.4-1.9-0.9-3.8-1.5-5.6c-11.9-40.2-48-67.7-93.2-69.6c-44.7-2.2-73.7-14-93.9-26.3
				c-9.4-5.7-16.6-11.1-21.6-15.2c0,0,0.1-0.1,0.1-0.1c-39.8-33.1-65.2-83-65.2-138.8c0-99.6,80.8-180.4,180.4-180.4
				C487.1,22.7,558.9,82.6,577.2,163z"/>
			<linearGradient id="SVGID_3_" gradientUnits="userSpaceOnUse" x1="286.3521" y1="241.053" x2="520.3936" y2="386.1587">
				<stop  offset="0" style="stop-color:#FFFFFF;stop-opacity:0"/>
				<stop  offset="1" style="stop-color:#000000"/>
			</linearGradient>
			<path class="st10" d="M304.5,192.1c0,0-9.5,53.4,39.4,88s129.4,55.1,129.4,55.1l53.4,145.6c0,0-32.1,38.7-28.9,11.1
				c3.2-27.5-4.6-102.6-105.9-109c-50.1-3.2-162.3-37.9-171-174.6c-8.7-136.7,8.6-109.1,8.6-109.1s124,53.4,123.1,54.8
				C351.6,155.5,304.5,192.1,304.5,192.1z"/>
			<path class="st4" d="M401.2,382.9c-2.1,0-4.3,0.1-6.4,0.2c2.1,0.2,4.2,0.3,6.4,0.4c45.2,2,81.3,29.4,93.2,69.6
				c0.5,1.8,1,3.7,1.5,5.6c-0.3-1.8-0.6-3.6-0.9-5.4C483.2,412.7,445.7,382.9,401.2,382.9z"/>
			<g>
				<path class="st6" d="M498.4,480.7c0-0.2,0-0.3,0-0.5c0,1,0,2-0.1,3C498.3,482.4,498.4,481.6,498.4,480.7z"/>
				<path class="st6" d="M474.6,403.6c-0.1-0.1-0.1-0.2-0.2-0.3c-0.4-0.6-0.9-1.2-1.4-1.9c0-0.1-0.1-0.1-0.1-0.2
					c-2.1-2.8-4.4-5.6-6.8-8.3c0,0,0,0-0.1-0.1c-0.6-0.6-1.2-1.3-1.8-1.9c-0.1-0.1-0.2-0.2-0.3-0.3c-0.5-0.6-1.1-1.1-1.6-1.7
					c-0.1-0.1-0.3-0.3-0.4-0.4c-0.5-0.5-1-1-1.6-1.6c-0.2-0.2-0.3-0.3-0.5-0.5c-0.5-0.5-1-1-1.6-1.5c6.4,6.9,11.9,13.2,16.8,19.3
					C474.9,404.1,474.8,403.9,474.6,403.6z"/>
				<path class="st6" d="M498.2,485.5c0,0.1,0,0.3,0,0.4C498.2,485.7,498.2,485.6,498.2,485.5z"/>
				<path class="st7" d="M516.5,341.9c0.1-0.1,0.2-0.1,0.2-0.2c-5-4.1-12.2-9.5-21.5-15c-27.4-16.8-47.8-20.4-94.1-26.4
					c-36.4-4.7-68.7-20.4-85.2-50.5c-7.6-13.8-11.9-29.7-11.9-46.6c0-4.7,0.3-9.3,1-13.8h0c-8.4,42.3-0.1,88.8,33.6,122.1
					c0,0,0,0,0,0c1.5,1.5,3,2.9,4.6,4.3c0.1,0.1,0.3,0.3,0.4,0.4c1.4,1.2,2.8,2.4,4.3,3.6c0.3,0.3,0.7,0.5,1,0.8
					c1.2,0.9,2.4,1.9,3.6,2.8c0.6,0.5,1.3,0.9,1.9,1.4c0.7,0.5,1.5,1,2.2,1.6c1.2,0.8,2.4,1.6,3.6,2.4c0.6,0.4,1.2,0.8,1.9,1.2
					c1.4,0.8,2.8,1.7,4.2,2.5c0.5,0.3,1,0.6,1.5,0.8c1.6,0.9,3.2,1.7,4.8,2.6c0.4,0.2,0.7,0.4,1.1,0.6c1.8,0.9,3.6,1.8,5.5,2.6
					c0.2,0.1,0.4,0.2,0.6,0.3c2,0.9,4.1,1.8,6.2,2.7c1.4,0.6,2.8,1.1,4.2,1.7c0.5,0.2,0.9,0.4,1.4,0.6c0.9,0.4,1.8,0.8,2.7,1.2
					c0.5,0.2,1,0.5,1.6,0.7c0.8,0.4,1.6,0.7,2.4,1.1c0.5,0.2,1.1,0.5,1.6,0.7c0.8,0.3,1.5,0.7,2.3,1c0.5,0.2,1.1,0.5,1.6,0.7
					c0.7,0.4,1.5,0.7,2.2,1.1c0.5,0.2,1,0.5,1.5,0.7c0.7,0.4,1.5,0.7,2.2,1.1c0.5,0.2,1,0.5,1.5,0.7c0.7,0.4,1.5,0.8,2.2,1.1
					c0.4,0.2,0.9,0.4,1.3,0.7c0.8,0.4,1.6,0.9,2.4,1.3c0.3,0.2,0.7,0.4,1,0.5c1.1,0.6,2.2,1.2,3.3,1.8c0,0,0,0,0,0
					c1.1,0.6,2.2,1.3,3.3,1.9c0.2,0.1,0.5,0.3,0.7,0.4c0.8,0.5,1.6,1,2.4,1.4c0.3,0.2,0.7,0.4,1,0.6c0.7,0.4,1.4,0.9,2.1,1.3
					c0.4,0.2,0.7,0.4,1.1,0.7c0.6,0.4,1.3,0.8,1.9,1.2c0.4,0.2,0.7,0.5,1,0.7c0.6,0.4,1.2,0.8,1.9,1.2c0.3,0.2,0.7,0.4,1,0.7
					c0.6,0.4,1.2,0.9,1.8,1.3c0.3,0.2,0.6,0.4,0.9,0.6c0.6,0.5,1.3,0.9,1.9,1.4c0.3,0.2,0.5,0.4,0.8,0.6c0.7,0.5,1.4,1,2.1,1.6
					c0.2,0.1,0.3,0.2,0.5,0.4c2.6,2,5,4,7.3,6c0.1,0.1,0.3,0.2,0.4,0.3c0.6,0.5,1.3,1.1,1.9,1.6c0.2,0.2,0.3,0.3,0.5,0.5
					c0.6,0.5,1.1,1,1.7,1.5c0.2,0.2,0.4,0.3,0.5,0.5c0.5,0.5,1.1,1,1.6,1.5c0.2,0.2,0.3,0.3,0.5,0.5c0.5,0.5,1.1,1,1.6,1.6
					c0.1,0.1,0.3,0.3,0.4,0.4c0.5,0.6,1.1,1.1,1.6,1.7c0.1,0.1,0.2,0.2,0.3,0.3c0.6,0.6,1.2,1.3,1.8,1.9c0,0,0,0,0.1,0.1
					c2.5,2.8,4.7,5.5,6.8,8.3c0,0.1,0.1,0.1,0.1,0.2c0.5,0.6,0.9,1.2,1.4,1.9c0.1,0.1,0.1,0.2,0.2,0.3c0.1,0.2,0.3,0.4,0.4,0.6
					c15.9,20,23.6,38.6,23.3,76c0,0.2,0,0.3,0,0.5c0,0.9,0,1.7-0.1,2.6c0,0.5,0,1,0,1.6c0,0.2,0,0.4,0,0.6c0,0.1,0,0.3,0,0.4
					c-0.1,1.4-0.2,2.8-0.3,4.1c-4.6,49.3-46.2,88-96.7,88c-53.7,0-97.1-43.5-97.1-97.2c0-11.3,1.5-21.8,4.7-31.7
					c6.4-18.8,18.4-34.9,33.9-46.6c-24.5-6.6-52.8-19-77.2-40.6c-17.1,19.5-30.1,42.7-37.5,68.3h0c0,0.1,0,0.1-0.1,0.2
					c-2.9,9.9-4.9,20.1-6.1,30.6c0,0.2,0,0.4-0.1,0.6c-0.2,2-0.4,4-0.5,6c0,0,0,0.1,0,0.1c-0.1,1.9-0.2,3.9-0.3,5.9
					c0,0.4,0,0.9,0,1.3c-0.1,2-0.1,3.9-0.1,5.9c0,2,0,3.9,0.1,5.9c0,0.5,0,1.1,0.1,1.6c0.1,1.6,0.2,3.2,0.3,4.8c0,0.4,0,0.8,0.1,1.1
					c0.1,1.9,0.3,3.8,0.5,5.8c0,0.4,0.1,0.8,0.1,1.2c0.2,1.6,0.4,3.2,0.6,4.7c0.1,0.4,0.1,0.9,0.2,1.3c0.3,1.9,0.6,3.8,0.9,5.8
					c0,0.1,0,0.1,0,0.2c0.3,1.8,0.7,3.7,1.1,5.5c0.1,0.4,0.2,0.8,0.3,1.2c0.4,1.8,0.8,3.6,1.3,5.4c0,0.1,0,0.1,0.1,0.2
					c0.5,1.9,1,3.8,1.6,5.8c0.1,0.2,0.1,0.5,0.2,0.7c0.5,1.7,1,3.4,1.6,5.1c0.1,0.2,0.1,0.4,0.2,0.6c1.3,3.8,2.6,7.5,4.1,11.2
					c0.1,0.2,0.2,0.4,0.2,0.6c1.5,3.7,3.2,7.3,4.9,10.9c0,0.1,0.1,0.2,0.1,0.3c2.7,5.4,5.6,10.7,8.9,15.9c0,0,0,0.1,0.1,0.1l0,0
					c31.9,50.8,88.5,84.7,152.9,84.7c99.7,0,180.4-80.8,180.4-180.4C581.6,424.9,556.3,375,516.5,341.9z"/>
				<path class="st8" d="M476.1,405.7c1.3,2,2.6,3.9,3.8,5.9C478.6,409.6,477.4,407.7,476.1,405.7z"/>
				<path class="st8" d="M498.3,484.8c0-0.5,0-1,0-1.6c0,0.7,0,1.5-0.1,2.2C498.2,485.3,498.3,485.1,498.3,484.8z"/>
				<path class="st8" d="M497.9,489.9c0.1-1.3,0.2-2.6,0.3-4.1C498.1,487.2,498,488.6,497.9,489.9z"/>
				<path class="st8" d="M481.6,414.7c1.1,2,2.1,4,3.1,5.9C483.7,418.7,482.7,416.7,481.6,414.7z"/>
			</g>
		</g>
		<g>
			<path class="st11" d="M628.2,244.5H333.4c2.1,8.8,14.3,19.8,14.3,19.8h280.5v228.2c0,126-102.2,228.2-228.2,228.2h0
				c-126,0-228.2-102.2-228.2-228.2V264.3h40.2c-3.5-6.6-4.5-12.5-5.9-19.8h-34.4H152v19.8v228.2c0,66.2,25.8,128.5,72.6,175.3
				c46.8,46.8,109.1,72.6,175.3,72.6c66.2,0,128.5-25.8,175.3-72.6C622.2,621,648,558.7,648,492.5V264.3v-19.8H628.2z"/>
		</g>
	</g>
</g>
<g id="Layer_6">
	<g>
		<path class="st3" d="M385.6,555.4L385.6,555.4c-80.2,0-145.3-65-145.3-145.3V264.8h290.6v145.3
			C530.9,490.3,465.9,555.4,385.6,555.4z"/>
	</g>
	<g>
		<path class="st12" d="M501.7,230.8c0-1.1,0.1-2.3,0.1-3.4c0-15.5-3-30.2-8.5-43.8C476.4,141,434.9,111,386.4,111
			c-41.1,0-77.1,21.6-97.4,54c-11.1,17.7-17.5,38.5-17.5,60.9c0,1.1,0,2.2,0,3.4c0.7,11.5,2.6,21.9,5.3,31.3
			c6.7,21.2,19.4,39.8,36.2,53.7c0,0-0.1,0-0.1,0.1c3.1,2.6,7.7,6.1,13.7,9.7c12.8,7.8,31.3,15.3,59.8,16.7
			c28.8,1.3,51.8,18.7,59.3,44.3c0.3,1.2,0.7,2.4,0.9,3.6c-3.7-24.2-15-52.5-69.8-74.4c-45.6-18.2-58.5-58.6-52.1-94.9
			c0-0.3,0.1-0.5,0.1-0.5s0,0,0,0c0.1-0.6,0.2-1.1,0.3-1.7h0c1.6-11.5,6.4-21.9,13.4-30.5c11.3-13.8,28.5-22.6,47.8-22.6
			c14,0,26.9,4.6,37.2,12.5l0,0.1c15,11.5,24.7,29.6,24.7,50c0,1.4-0.1,2.8-0.2,4.2H501.7z"/>
	</g>
	<path class="st4" d="M324.7,219.3c0-0.2,0.1-0.3,0.1-0.5c0,0,0,0,0,0S324.8,219,324.7,219.3z"/>
	<path class="st4" d="M276.8,260.5c-2.7-9.4-4.5-19.8-5.3-31.3C271.9,240.1,273.7,250.6,276.8,260.5z"/>
	<linearGradient id="SVGID_4_" gradientUnits="userSpaceOnUse" x1="315.8509" y1="245.2425" x2="465.1211" y2="337.79">
		<stop  offset="0" style="stop-color:#FFFFFF;stop-opacity:0"/>
		<stop  offset="1" style="stop-color:#000000"/>
	</linearGradient>
	<path class="st13" d="M312.5,314.2C312.5,314.2,312.4,314.3,312.5,314.2c3.1,2.7,7.7,6.2,13.6,9.8c12.8,7.8,31.3,15.3,59.8,16.7
		c28.8,1.3,52.3,18.7,59.8,44.3c0.3,1.2,0.7,2.4,0.9,3.6c-0.8-23-15.5-52.5-70.3-74.4c-45.6-18.2-58.5-58.6-52.1-94.9
		c0-0.3,0.1-0.5,0.1-0.5s0,0,0,0c0.1-0.6,0.2-1.1,0.3-1.7h0c1.6-11.5,6.4-21.9,13.4-30.5c-14.9-6.7-36.4-16-49.6-21.7
		c-11.1,17.7-17.5,38.5-17.5,60.9c0,1.1,0,2.2,0,3.4c0.7,11.5,2.6,21.9,5.3,31.3C283,281.7,295.8,300.3,312.5,314.2z"/>
	<g>
		<path class="st6" d="M447.3,402.6c0-0.1,0-0.2,0-0.3c0,0.6,0,1.3,0,1.9C447.2,403.7,447.3,403.1,447.3,402.6z"/>
		<path class="st6" d="M432.1,353.5c0-0.1-0.1-0.1-0.1-0.2c-0.3-0.4-0.6-0.8-0.9-1.2c0,0-0.1-0.1-0.1-0.1c-1.3-1.8-2.8-3.5-4.3-5.3
			c0,0,0,0,0,0c-0.4-0.4-0.7-0.8-1.1-1.2c-0.1-0.1-0.1-0.1-0.2-0.2c-0.3-0.4-0.7-0.7-1-1.1c-0.1-0.1-0.2-0.2-0.3-0.3
			c-0.3-0.3-0.7-0.7-1-1c-0.1-0.1-0.2-0.2-0.3-0.3c-0.3-0.3-0.7-0.6-1-1c4,4.4,7.6,8.4,10.7,12.3
			C432.3,353.8,432.2,353.7,432.1,353.5z"/>
		<path class="st6" d="M447.2,405.6c0,0.1,0,0.2,0,0.2C447.2,405.8,447.2,405.7,447.2,405.6z"/>
		<path class="st7" d="M458.8,314.2c0,0,0.1-0.1,0.1-0.1c-3.2-2.6-7.8-6.1-13.7-9.6c-17.4-10.7-30.4-13-59.9-16.8
			c-23.2-3-43.8-13-54.3-32.2c-4.8-8.8-7.6-18.9-7.6-29.7c0-3,0.2-5.9,0.6-8.8l0,0c-5.4,27-0.1,56.5,21.4,77.7c0,0,0,0,0,0
			c0.9,0.9,1.9,1.8,2.9,2.7c0.1,0.1,0.2,0.2,0.3,0.2c0.9,0.8,1.8,1.6,2.7,2.3c0.2,0.2,0.4,0.3,0.6,0.5c0.8,0.6,1.5,1.2,2.3,1.8
			c0.4,0.3,0.8,0.6,1.2,0.9c0.5,0.3,0.9,0.7,1.4,1c0.7,0.5,1.5,1,2.3,1.5c0.4,0.3,0.8,0.5,1.2,0.8c0.9,0.5,1.8,1.1,2.7,1.6
			c0.3,0.2,0.6,0.4,1,0.5c1,0.6,2,1.1,3.1,1.6c0.2,0.1,0.5,0.2,0.7,0.4c1.1,0.6,2.3,1.1,3.5,1.7c0.1,0.1,0.3,0.1,0.4,0.2
			c1.3,0.6,2.6,1.1,4,1.7c0.9,0.4,1.8,0.7,2.7,1.1c0.3,0.1,0.6,0.2,0.9,0.4c0.6,0.2,1.2,0.5,1.7,0.7c0.3,0.1,0.7,0.3,1,0.4
			c0.5,0.2,1,0.5,1.5,0.7c0.3,0.2,0.7,0.3,1,0.5c0.5,0.2,1,0.4,1.5,0.7c0.3,0.2,0.7,0.3,1,0.5c0.5,0.2,1,0.4,1.4,0.7
			c0.3,0.2,0.7,0.3,1,0.5c0.5,0.2,0.9,0.5,1.4,0.7c0.3,0.2,0.6,0.3,0.9,0.5c0.5,0.2,0.9,0.5,1.4,0.7c0.3,0.1,0.6,0.3,0.8,0.4
			c0.5,0.3,1,0.5,1.5,0.8c0.2,0.1,0.4,0.2,0.6,0.3c0.7,0.4,1.4,0.8,2.1,1.2c0,0,0,0,0,0c0.7,0.4,1.4,0.8,2.1,1.2
			c0.2,0.1,0.3,0.2,0.5,0.3c0.5,0.3,1,0.6,1.5,0.9c0.2,0.1,0.4,0.3,0.6,0.4c0.4,0.3,0.9,0.5,1.3,0.8c0.2,0.1,0.4,0.3,0.7,0.4
			c0.4,0.3,0.8,0.5,1.2,0.8c0.2,0.1,0.4,0.3,0.7,0.4c0.4,0.3,0.8,0.5,1.2,0.8c0.2,0.1,0.4,0.3,0.6,0.4c0.4,0.3,0.8,0.5,1.2,0.8
			c0.2,0.1,0.4,0.3,0.6,0.4c0.4,0.3,0.8,0.6,1.2,0.9c0.2,0.1,0.3,0.2,0.5,0.4c0.4,0.3,0.9,0.7,1.3,1c0.1,0.1,0.2,0.2,0.3,0.2
			c1.6,1.3,3.2,2.5,4.7,3.8c0.1,0.1,0.2,0.1,0.2,0.2c0.4,0.3,0.8,0.7,1.2,1c0.1,0.1,0.2,0.2,0.3,0.3c0.4,0.3,0.7,0.7,1.1,1
			c0.1,0.1,0.2,0.2,0.3,0.3c0.3,0.3,0.7,0.6,1,1c0.1,0.1,0.2,0.2,0.3,0.3c0.3,0.3,0.7,0.7,1,1c0.1,0.1,0.2,0.2,0.3,0.3
			c0.3,0.4,0.7,0.7,1,1.1c0.1,0.1,0.1,0.1,0.2,0.2c0.4,0.4,0.8,0.8,1.1,1.2c0,0,0,0,0,0c1.6,1.8,3,3.5,4.3,5.3c0,0,0.1,0.1,0.1,0.1
			c0.3,0.4,0.6,0.8,0.9,1.2c0,0.1,0.1,0.1,0.1,0.2c0.1,0.1,0.2,0.3,0.3,0.4c10.1,12.8,15.1,24.6,14.8,48.4c0,0.1,0,0.2,0,0.3
			c0,0.5,0,1.1,0,1.6c0,0.3,0,0.7,0,1c0,0.1,0,0.3,0,0.4c0,0.1,0,0.2,0,0.2c0,0.9-0.1,1.8-0.2,2.6c-3,31.4-29.4,56-61.6,56
			c-34.2,0-61.9-27.7-61.9-61.9c0-7.2,1-13.9,3-20.2c4.1-11.9,11.7-22.2,21.6-29.7c-15.6-4.2-33.6-12.1-49.2-25.9
			c-10.9,12.4-19.1,27.2-23.9,43.5h0c0,0,0,0.1,0,0.1c-1.8,6.3-3.1,12.8-3.9,19.5c0,0.1,0,0.3,0,0.4c-0.1,1.3-0.2,2.5-0.3,3.8
			c0,0,0,0.1,0,0.1c-0.1,1.2-0.2,2.5-0.2,3.7c0,0.3,0,0.5,0,0.8c0,1.2-0.1,2.5-0.1,3.7c0,1.3,0,2.5,0.1,3.7c0,0.3,0,0.7,0,1
			c0,1,0.1,2,0.2,3c0,0.2,0,0.5,0,0.7c0.1,1.2,0.2,2.4,0.3,3.7c0,0.3,0.1,0.5,0.1,0.8c0.1,1,0.2,2,0.4,3c0,0.3,0.1,0.6,0.1,0.9
			c0.2,1.2,0.4,2.4,0.6,3.7c0,0,0,0.1,0,0.1c0.2,1.2,0.4,2.3,0.7,3.5c0.1,0.3,0.1,0.5,0.2,0.8c0.3,1.1,0.5,2.3,0.8,3.4
			c0,0,0,0.1,0,0.1c0.3,1.2,0.6,2.4,1,3.7c0,0.2,0.1,0.3,0.1,0.5c0.3,1.1,0.7,2.2,1,3.3c0,0.1,0.1,0.3,0.1,0.4
			c0.8,2.4,1.7,4.8,2.6,7.1c0,0.1,0.1,0.2,0.1,0.4c1,2.4,2,4.7,3.1,7c0,0.1,0.1,0.1,0.1,0.2c1.7,3.5,3.6,6.8,5.6,10.1
			c0,0,0,0.1,0,0.1l0,0c20.3,32.4,56.3,53.9,97.4,53.9c63.5,0,114.9-51.4,114.9-114.9C500.3,367.1,484.2,335.3,458.8,314.2z"/>
		<path class="st8" d="M433.1,354.8c0.9,1.2,1.6,2.5,2.4,3.8C434.7,357.3,433.9,356.1,433.1,354.8z"/>
		<path class="st8" d="M447.2,405.2c0-0.3,0-0.7,0-1c0,0.5,0,0.9,0,1.4C447.2,405.5,447.2,405.4,447.2,405.2z"/>
		<path class="st8" d="M447,408.5c0.1-0.8,0.2-1.7,0.2-2.6C447.1,406.7,447,407.6,447,408.5z"/>
		<path class="st8" d="M436.6,360.6c0.7,1.3,1.3,2.5,1.9,3.8C437.9,363.1,437.3,361.8,436.6,360.6z"/>
	</g>
	<g>
		<path class="st7" d="M266.5,576.1c16.9,0,25.6,10.1,25.6,27.8v3.5h-16.4v-4.6c0-7.9-3.2-10.9-8.7-10.9c-5.5,0-8.7,3-8.7,10.9
			c0,8,3.5,14,14.8,24c14.5,12.8,19.1,21.9,19.1,34.6c0,17.7-8.8,27.8-25.9,27.8s-25.9-10.1-25.9-27.8v-6.8h16.4v7.9
			c0,7.9,3.5,10.7,9,10.7c5.5,0,9-2.8,9-10.7c0-8-3.5-14-14.8-24c-14.5-12.8-19.1-21.9-19.1-34.6
			C240.9,586.2,249.6,576.1,266.5,576.1z"/>
		<path class="st7" d="M297.1,577.3h53.7v15.8h-18.1v94.7h-17.4v-94.7h-18.1V577.3z"/>
		<path class="st7" d="M408.5,687.8H391l-3-20h-21.3l-3,20h-15.9l17.7-110.5h25.4L408.5,687.8z M368.9,652.8h16.7l-8.2-55.9h-0.3
			L368.9,652.8z"/>
		<path class="st7" d="M439.9,576.1c16.9,0,25.6,10.1,25.6,27.8v3.5H449v-4.6c0-7.9-3.2-10.9-8.7-10.9c-5.5,0-8.7,3-8.7,10.9
			c0,8,3.5,14,14.8,24c14.5,12.8,19.1,21.9,19.1,34.6c0,17.7-8.8,27.8-25.9,27.8s-25.9-10.1-25.9-27.8v-6.8h16.4v7.9
			c0,7.9,3.5,10.7,9,10.7s9-2.8,9-10.7c0-8-3.5-14-14.8-24c-14.5-12.8-19.1-21.9-19.1-34.6C414.3,586.2,423,576.1,439.9,576.1z"/>
		<path class="st7" d="M492.9,687.8h-17.4V577.3h17.4v47.3h19.7v-47.3h17.7v110.5h-17.7v-47.3h-19.7V687.8z"/>
		<path class="st7" d="M559.7,671.1v16.7h-16.7v-16.7H559.7z"/>
	</g>
</g>
<g id="Layer_7" class="st0">
	<g class="st1">
		<g>
			<path class="st14" d="M385.6,555.4L385.6,555.4c-80.2,0-145.3-65-145.3-145.3V264.8h290.6v145.3
				C530.9,490.3,465.9,555.4,385.6,555.4z"/>
		</g>
		<g>
			<path class="st15" d="M501.7,230.8c0-1.1,0.1-2.3,0.1-3.4c0-15.5-3-30.2-8.5-43.8C476.4,141,434.9,111,386.4,111
				c-41.1,0-77.1,21.6-97.4,54c-11.1,17.7-17.5,38.5-17.5,60.9c0,1.1,0,2.2,0,3.4c0.7,11.5,2.6,21.9,5.3,31.3
				c6.7,21.2,19.4,39.8,36.2,53.7c0,0-0.1,0-0.1,0.1c3.1,2.6,7.7,6.1,13.7,9.7c12.8,7.8,31.3,15.3,59.8,16.7
				c28.8,1.3,51.8,18.7,59.3,44.3c0.3,1.2,0.7,2.4,0.9,3.6c-3.7-24.2-15-52.5-69.8-74.4c-45.6-18.2-58.5-58.6-52.1-94.9
				c0-0.3,0.1-0.5,0.1-0.5s0,0,0,0c0.1-0.6,0.2-1.1,0.3-1.7h0c1.6-11.5,6.4-21.9,13.4-30.5c11.3-13.8,28.5-22.6,47.8-22.6
				c14,0,26.9,4.6,37.2,12.5l0,0.1c15,11.5,24.7,29.6,24.7,50c0,1.4-0.1,2.8-0.2,4.2H501.7z"/>
		</g>
		<path class="st16" d="M324.7,219.3c0-0.2,0.1-0.3,0.1-0.5c0,0,0,0,0,0S324.8,219,324.7,219.3z"/>
		<path class="st16" d="M276.8,260.5c-2.7-9.4-4.5-19.8-5.3-31.3C271.9,240.1,273.7,250.6,276.8,260.5z"/>
		<linearGradient id="SVGID_5_" gradientUnits="userSpaceOnUse" x1="315.8509" y1="245.2425" x2="465.1211" y2="337.79">
			<stop  offset="0" style="stop-color:#FFFFFF;stop-opacity:0"/>
			<stop  offset="1" style="stop-color:#000000"/>
		</linearGradient>
		<path class="st17" d="M312.5,314.2C312.5,314.2,312.4,314.3,312.5,314.2c3.1,2.7,7.7,6.2,13.6,9.8c12.8,7.8,31.3,15.3,59.8,16.7
			c28.8,1.3,52.3,18.7,59.8,44.3c0.3,1.2,0.7,2.4,0.9,3.6c-0.8-23-15.5-52.5-70.3-74.4c-45.6-18.2-58.5-58.6-52.1-94.9
			c0-0.3,0.1-0.5,0.1-0.5s0,0,0,0c0.1-0.6,0.2-1.1,0.3-1.7h0c1.6-11.5,6.4-21.9,13.4-30.5c-14.9-6.7-36.4-16-49.6-21.7
			c-11.1,17.7-17.5,38.5-17.5,60.9c0,1.1,0,2.2,0,3.4c0.7,11.5,2.6,21.9,5.3,31.3C283,281.7,295.8,300.3,312.5,314.2z"/>
		<g>
			<path class="st6" d="M447.3,402.6c0-0.1,0-0.2,0-0.3c0,0.6,0,1.3,0,1.9C447.2,403.7,447.3,403.1,447.3,402.6z"/>
			<path class="st6" d="M432.1,353.5c0-0.1-0.1-0.1-0.1-0.2c-0.3-0.4-0.6-0.8-0.9-1.2c0,0-0.1-0.1-0.1-0.1c-1.3-1.8-2.8-3.5-4.3-5.3
				c0,0,0,0,0,0c-0.4-0.4-0.7-0.8-1.1-1.2c-0.1-0.1-0.1-0.1-0.2-0.2c-0.3-0.4-0.7-0.7-1-1.1c-0.1-0.1-0.2-0.2-0.3-0.3
				c-0.3-0.3-0.7-0.7-1-1c-0.1-0.1-0.2-0.2-0.3-0.3c-0.3-0.3-0.7-0.6-1-1c4,4.4,7.6,8.4,10.7,12.3
				C432.3,353.8,432.2,353.7,432.1,353.5z"/>
			<path class="st6" d="M447.2,405.6c0,0.1,0,0.2,0,0.2C447.2,405.8,447.2,405.7,447.2,405.6z"/>
			<path class="st18" d="M458.8,314.2c0,0,0.1-0.1,0.1-0.1c-3.2-2.6-7.8-6.1-13.7-9.6c-17.4-10.7-30.4-13-59.9-16.8
				c-23.2-3-43.8-13-54.3-32.2c-4.8-8.8-7.6-18.9-7.6-29.7c0-3,0.2-5.9,0.6-8.8l0,0c-5.4,27-0.1,56.5,21.4,77.7c0,0,0,0,0,0
				c0.9,0.9,1.9,1.8,2.9,2.7c0.1,0.1,0.2,0.2,0.3,0.2c0.9,0.8,1.8,1.6,2.7,2.3c0.2,0.2,0.4,0.3,0.6,0.5c0.8,0.6,1.5,1.2,2.3,1.8
				c0.4,0.3,0.8,0.6,1.2,0.9c0.5,0.3,0.9,0.7,1.4,1c0.7,0.5,1.5,1,2.3,1.5c0.4,0.3,0.8,0.5,1.2,0.8c0.9,0.5,1.8,1.1,2.7,1.6
				c0.3,0.2,0.6,0.4,1,0.5c1,0.6,2,1.1,3.1,1.6c0.2,0.1,0.5,0.2,0.7,0.4c1.1,0.6,2.3,1.1,3.5,1.7c0.1,0.1,0.3,0.1,0.4,0.2
				c1.3,0.6,2.6,1.1,4,1.7c0.9,0.4,1.8,0.7,2.7,1.1c0.3,0.1,0.6,0.2,0.9,0.4c0.6,0.2,1.2,0.5,1.7,0.7c0.3,0.1,0.7,0.3,1,0.4
				c0.5,0.2,1,0.5,1.5,0.7c0.3,0.2,0.7,0.3,1,0.5c0.5,0.2,1,0.4,1.5,0.7c0.3,0.2,0.7,0.3,1,0.5c0.5,0.2,1,0.4,1.4,0.7
				c0.3,0.2,0.7,0.3,1,0.5c0.5,0.2,0.9,0.5,1.4,0.7c0.3,0.2,0.6,0.3,0.9,0.5c0.5,0.2,0.9,0.5,1.4,0.7c0.3,0.1,0.6,0.3,0.8,0.4
				c0.5,0.3,1,0.5,1.5,0.8c0.2,0.1,0.4,0.2,0.6,0.3c0.7,0.4,1.4,0.8,2.1,1.2c0,0,0,0,0,0c0.7,0.4,1.4,0.8,2.1,1.2
				c0.2,0.1,0.3,0.2,0.5,0.3c0.5,0.3,1,0.6,1.5,0.9c0.2,0.1,0.4,0.3,0.6,0.4c0.4,0.3,0.9,0.5,1.3,0.8c0.2,0.1,0.4,0.3,0.7,0.4
				c0.4,0.3,0.8,0.5,1.2,0.8c0.2,0.1,0.4,0.3,0.7,0.4c0.4,0.3,0.8,0.5,1.2,0.8c0.2,0.1,0.4,0.3,0.6,0.4c0.4,0.3,0.8,0.5,1.2,0.8
				c0.2,0.1,0.4,0.3,0.6,0.4c0.4,0.3,0.8,0.6,1.2,0.9c0.2,0.1,0.3,0.2,0.5,0.4c0.4,0.3,0.9,0.7,1.3,1c0.1,0.1,0.2,0.2,0.3,0.2
				c1.6,1.3,3.2,2.5,4.7,3.8c0.1,0.1,0.2,0.1,0.2,0.2c0.4,0.3,0.8,0.7,1.2,1c0.1,0.1,0.2,0.2,0.3,0.3c0.4,0.3,0.7,0.7,1.1,1
				c0.1,0.1,0.2,0.2,0.3,0.3c0.3,0.3,0.7,0.6,1,1c0.1,0.1,0.2,0.2,0.3,0.3c0.3,0.3,0.7,0.7,1,1c0.1,0.1,0.2,0.2,0.3,0.3
				c0.3,0.4,0.7,0.7,1,1.1c0.1,0.1,0.1,0.1,0.2,0.2c0.4,0.4,0.8,0.8,1.1,1.2c0,0,0,0,0,0c1.6,1.8,3,3.5,4.3,5.3c0,0,0.1,0.1,0.1,0.1
				c0.3,0.4,0.6,0.8,0.9,1.2c0,0.1,0.1,0.1,0.1,0.2c0.1,0.1,0.2,0.3,0.3,0.4c10.1,12.8,15.1,24.6,14.8,48.4c0,0.1,0,0.2,0,0.3
				c0,0.5,0,1.1,0,1.6c0,0.3,0,0.7,0,1c0,0.1,0,0.3,0,0.4c0,0.1,0,0.2,0,0.2c0,0.9-0.1,1.8-0.2,2.6c-3,31.4-29.4,56-61.6,56
				c-34.2,0-61.9-27.7-61.9-61.9c0-7.2,1-13.9,3-20.2c4.1-11.9,11.7-22.2,21.6-29.7c-15.6-4.2-33.6-12.1-49.2-25.9
				c-10.9,12.4-19.1,27.2-23.9,43.5h0c0,0,0,0.1,0,0.1c-1.8,6.3-3.1,12.8-3.9,19.5c0,0.1,0,0.3,0,0.4c-0.1,1.3-0.2,2.5-0.3,3.8
				c0,0,0,0.1,0,0.1c-0.1,1.2-0.2,2.5-0.2,3.7c0,0.3,0,0.5,0,0.8c0,1.2-0.1,2.5-0.1,3.7c0,1.3,0,2.5,0.1,3.7c0,0.3,0,0.7,0,1
				c0,1,0.1,2,0.2,3c0,0.2,0,0.5,0,0.7c0.1,1.2,0.2,2.4,0.3,3.7c0,0.3,0.1,0.5,0.1,0.8c0.1,1,0.2,2,0.4,3c0,0.3,0.1,0.6,0.1,0.9
				c0.2,1.2,0.4,2.4,0.6,3.7c0,0,0,0.1,0,0.1c0.2,1.2,0.4,2.3,0.7,3.5c0.1,0.3,0.1,0.5,0.2,0.8c0.3,1.1,0.5,2.3,0.8,3.4
				c0,0,0,0.1,0,0.1c0.3,1.2,0.6,2.4,1,3.7c0,0.2,0.1,0.3,0.1,0.5c0.3,1.1,0.7,2.2,1,3.3c0,0.1,0.1,0.3,0.1,0.4
				c0.8,2.4,1.7,4.8,2.6,7.1c0,0.1,0.1,0.2,0.1,0.4c1,2.4,2,4.7,3.1,7c0,0.1,0.1,0.1,0.1,0.2c1.7,3.5,3.6,6.8,5.6,10.1
				c0,0,0,0.1,0,0.1l0,0c20.3,32.4,56.3,53.9,97.4,53.9c63.5,0,114.9-51.4,114.9-114.9C500.3,367.1,484.2,335.3,458.8,314.2z"/>
			<path class="st19" d="M433.1,354.8c0.9,1.2,1.6,2.5,2.4,3.8C434.7,357.3,433.9,356.1,433.1,354.8z"/>
			<path class="st19" d="M447.2,405.2c0-0.3,0-0.7,0-1c0,0.5,0,0.9,0,1.4C447.2,405.5,447.2,405.4,447.2,405.2z"/>
			<path class="st19" d="M447,408.5c0.1-0.8,0.2-1.7,0.2-2.6C447.1,406.7,447,407.6,447,408.5z"/>
			<path class="st19" d="M436.6,360.6c0.7,1.3,1.3,2.5,1.9,3.8C437.9,363.1,437.3,361.8,436.6,360.6z"/>
		</g>
		<g>
			<path class="st18" d="M266.5,576.1c16.9,0,25.6,10.1,25.6,27.8v3.5h-16.4v-4.6c0-7.9-3.2-10.9-8.7-10.9c-5.5,0-8.7,3-8.7,10.9
				c0,8,3.5,14,14.8,24c14.5,12.8,19.1,21.9,19.1,34.6c0,17.7-8.8,27.8-25.9,27.8s-25.9-10.1-25.9-27.8v-6.8h16.4v7.9
				c0,7.9,3.5,10.7,9,10.7c5.5,0,9-2.8,9-10.7c0-8-3.5-14-14.8-24c-14.5-12.8-19.1-21.9-19.1-34.6
				C240.9,586.2,249.6,576.1,266.5,576.1z"/>
			<path class="st18" d="M297.1,577.3h53.7v15.8h-18.1v94.7h-17.4v-94.7h-18.1V577.3z"/>
			<path class="st18" d="M408.5,687.8H391l-3-20h-21.3l-3,20h-15.9l17.7-110.5h25.4L408.5,687.8z M368.9,652.8h16.7l-8.2-55.9h-0.3
				L368.9,652.8z"/>
			<path class="st18" d="M439.9,576.1c16.9,0,25.6,10.1,25.6,27.8v3.5H449v-4.6c0-7.9-3.2-10.9-8.7-10.9c-5.5,0-8.7,3-8.7,10.9
				c0,8,3.5,14,14.8,24c14.5,12.8,19.1,21.9,19.1,34.6c0,17.7-8.8,27.8-25.9,27.8s-25.9-10.1-25.9-27.8v-6.8h16.4v7.9
				c0,7.9,3.5,10.7,9,10.7s9-2.8,9-10.7c0-8-3.5-14-14.8-24c-14.5-12.8-19.1-21.9-19.1-34.6C414.3,586.2,423,576.1,439.9,576.1z"/>
			<path class="st18" d="M492.9,687.8h-17.4V577.3h17.4v47.3h19.7v-47.3h17.7v110.5h-17.7v-47.3h-19.7V687.8z"/>
			<path class="st18" d="M559.7,671.1v16.7h-16.7v-16.7H559.7z"/>
		</g>
	</g>
</g>
</svg>
